<svg width="41" height="52" viewBox="0 0 41 52" xmlns="http://www.w3.org/2000/svg">
<path d="M20.3521 33.8231L20.3522 17.8996C23.2869 17.3975 25.5232 14.8482 25.5236 11.7696L13.0713 11.7691C13.0714 14.8467 15.3079 17.397 18.2421 17.8992L18.242 33.8227C12.9063 34.3517 9.70935 38.8528 9.70886 44.328L28.7089 44.328C28.7094 38.8528 25.688 34.3522 20.3521 33.8231Z" fill="#EF5DA8"/>
<path fill-rule="evenodd" clip-rule="evenodd" d="M6.24014 2.5H31.2398V8.49983L31.2398 10.4009L30.764 12.7805L30.2966 14.651L29.386 16.472L28.0256 18.2855L26.1454 19.6956L24.0278 21.2381L23.2929 21.6056L22.7401 21.882V22.5V22.7422V23.7422V26V28V29V29.4142L22.988 29.6621L22.8987 29.7847L25.9458 32.0043L27.8259 33.4144L29.1863 35.2279L30.097 37.0489L30.5644 38.9194L31.0487 41.3419L31.2401 43.5434V48.5H6.2504L6.30226 43.4434L6.32198 41.5182L6.82117 39.1029L7.30725 37.2016L8.23642 35.3434L9.6149 33.4886L11.5051 32.0403L14.562 29.7644L14.4885 29.6658L14.9472 29.2071L15.2401 28.9142V28.5V27.5V25.5V23.2422V23V22.5858L14.9472 22.2929L14.5768 21.9224L14.5819 21.9154L14.5372 21.8828L14.4472 21.7929L14.1543 21.5H14.0116L11.5348 19.6959L9.65462 18.2858L8.2942 16.4723L7.3836 14.6512L6.91616 12.7808L6.43056 10.3519L6.24011 8.4501L6.24014 2.5ZM13.2334 23.4075L10.3516 21.3084L10.3516 21.3085L10.3404 21.3001L8.34038 19.8001L8.22614 19.7144L8.14044 19.6002L6.6402 17.6003L6.58607 17.5281L6.54572 17.4474L5.54565 15.4475L5.49653 15.3492L5.4699 15.2427L4.97007 13.2426L4.9643 13.2195L4.95964 13.1962L4.45981 10.6961L4.45024 10.6483L4.44538 10.5997L4.24509 8.59969L4.24011 8.54999V8.50004L4.24014 2.5H4.24012V0.5H33.2401V2.5H33.2398V8.49981L33.2398 10.4998V10.5988L33.2204 10.6959L32.7205 13.196L32.7159 13.2193L32.7101 13.2424L32.2103 15.2424L32.1837 15.349L32.1345 15.4472L31.1345 17.4472L31.0941 17.5279L31.04 17.6L29.5397 19.5999L29.454 19.7142L29.3398 19.7998L27.3398 21.2998L27.3286 21.3082L27.3286 21.3081L25.1776 22.8749L25.1873 22.8944L25.0709 22.9526L24.7401 23.1936V23.7422V26V28V28.5858L24.9472 28.7929L24.9416 28.7985L27.1289 30.3918L27.129 30.3917L27.1402 30.4001L29.1402 31.9001L29.2544 31.9858L29.3401 32.1L30.8404 34.0999L30.8945 34.172L30.9348 34.2527L31.9349 36.2527L31.984 36.3509L32.0107 36.4575L32.5105 38.4576L32.5163 38.4806L32.5209 38.504L33.0207 41.004L33.0316 41.0583L33.0364 41.1135L33.2364 43.4134L33.2401 43.4566V43.5V48.5V49V50.5H4.24012V48.5H4.2503L4.30236 43.4229L4.32308 41.4006L4.32407 41.3035L4.34372 41.2084L4.86727 38.6753L4.87198 38.6525L4.87774 38.63L5.3961 36.6025L5.42263 36.4987L5.47053 36.4029L6.48693 34.3703L6.52626 34.2916L6.57871 34.2211L8.09308 32.1833L8.1765 32.0711L8.28753 31.986L10.2943 30.4486L10.3052 30.4402L10.3052 30.4403L13.0997 28.3596L13.033 28.2929L13.2401 28.0858V27.5V25.5V23.5V23.4142L13.2334 23.4075Z" />
</svg>
